<?xml version="1.0" encoding="UTF-8" standalone="no"?>
<!DOCTYPE svg PUBLIC "-//W3C//DTD SVG 1.1//EN" "http://www.w3.org/Graphics/SVG/1.1/DTD/svg11.dtd">
<svg xmlns="http://www.w3.org/2000/svg" version="1.1" viewBox="0.00 0.00 200.00 200.00">
  <g stroke-width="2.00" fill="none" stroke-linecap="butt">
  <path fill="#011538" d="
  M 150.15 49.34
  C 160.25 59.26 157.62 75.58 145.49 82.38
  Q 141.41 84.67 132.22 85.38
  Q 131.82 85.41 112.76 87.64
  Q 112.68 87.65 112.59 87.57
  Q 112.51 87.49 112.52 87.40
  Q 114.41 68.31 114.44 67.91
  Q 114.98 58.71 117.20 54.59
  C 123.79 42.34 140.05 39.42 150.15 49.34
  Z" />
  <path fill="#011538" d="
  M 112.11 87.96
  Q 112.35 88.20 112.23 89.25
  Q 109.07 118.05 108.51 124.31
  Q 107.68 133.51 105.85 137.92
  C 96.60 160.20 68.38 166.54 51.16 149.46
  C 33.93 132.39 40.02 104.12 62.21 94.67
  Q 66.61 92.80 75.80 91.89
  Q 82.05 91.27 110.82 87.86
  Q 111.88 87.73 112.11 87.96
  Z" />
  </g>
</svg>